<svg width="637.6800048828125px" height="124.439990234375px" xmlns="http://www.w3.org/2000/svg" viewBox="-68.84000244140623 12.780004882812499 637.6800048828125 124.439990234375" style="background: rgba(0, 0, 0, 0) none repeat scroll 0% 0%;" preserveAspectRatio="xMidYMid"><defs><filter id="editing-extrusion" x="-100%" y="-100%" width="300%" height="300%"><feFlood result="color1" flood-color="#444444"></feFlood><feConvolveMatrix order="8,8" divisor="1" kernelMatrix="1 0 0 0 0 0 0 0 0 1 0 0 0 0 0 0 0 0 1 0 0 0 0 0 0 0 0 1 0 0 0 0 0 0 0 0 1 0 0 0 0 0 0 0 0 1 0 0 0 0 0 0 0 0 1 0 0 0 0 0 0 0 0 1" in="SourceAlpha" result="extrude"></feConvolveMatrix><feComposite in="color1" in2="extrude" result="comp-extrude" operator="in"></feComposite><feOffset dx="4" dy="4" in="comp-extrude" result="offset-extrude"></feOffset><feMerge><feMergeNode in="offset-extrude"></feMergeNode><feMergeNode in="SourceGraphic"></feMergeNode></feMerge></filter></defs><g filter="url(#editing-extrusion)"><g transform="translate(24.52941620349884, 96.76000022888184)"><path d="M30.21-33.92L30.21-33.92L30.21-33.92Q25.02-33.92 21.25-35.65L21.25-35.65L19.20-25.28L31.55-25.28L31.55-25.28Q31.55-21.89 29.86-19.74L29.86-19.74L29.86-19.74Q28.16-17.60 25.09-17.60L25.09-17.60L25.09-17.60Q21.76-17.60 18.69-18.82L18.69-18.82L18.69-18.82Q18.05-19.07 17.98-19.14L17.98-19.14L14.34 0L0.38 0L8.51-42.24L37.06-42.24L37.06-42.24Q37.06-38.34 35.23-36.13L35.23-36.13L35.23-36.13Q33.41-33.92 30.21-33.92ZM48.96 1.28L48.96 1.28L48.96 1.28Q34.88 1.28 34.88-11.97L34.88-11.97L34.88-11.97Q34.88-21.38 40.06-27.46L40.06-27.46L40.06-27.46Q45.57-33.92 55.10-33.92L55.10-33.92L55.10-33.92Q62.02-33.92 65.54-30.72L65.54-30.72L65.54-30.72Q69.06-27.52 69.06-20.80L69.06-20.80L69.06-20.80Q69.06-10.56 63.55-4.61L63.55-4.61L63.55-4.61Q58.18 1.28 48.96 1.28ZM50.62-26.56L50.62-26.56L50.62-26.56Q49.86-24.83 49.25-22.24L49.25-22.24L49.25-22.24Q48.64-19.65 47.87-15.55L47.87-15.55L47.87-15.55Q47.10-11.46 47.10-6.40L47.10-6.40L47.10-6.40Q47.10-4.74 47.65-3.65L47.65-3.65L47.65-3.65Q48.19-2.56 49.66-2.56L49.66-2.56L49.66-2.56Q51.14-2.56 52.06-3.26L52.06-3.26L52.06-3.26Q52.99-3.97 53.70-5.63L53.70-5.63L53.70-5.63Q54.98-8.58 56-14.05L56-14.05L56-14.05Q57.02-19.52 57.12-21.89L57.12-21.89L57.12-21.89Q57.22-24.26 57.22-26.02L57.22-26.02L57.22-26.02Q57.22-27.78 56.70-28.93L56.70-28.93L56.70-28.93Q56.19-30.08 54.75-30.08L54.75-30.08L54.75-30.08Q53.31-30.08 52.35-29.18L52.35-29.18L52.35-29.18Q51.39-28.29 50.62-26.56ZM92.86-17.98L92.86-17.98L92.86-17.98Q95.17-22.08 95.17-26.24L95.17-26.24L95.17-26.24Q95.17-28.99 93.18-28.99L93.18-28.99L93.18-28.99Q91.65-28.99 90.05-26.37L90.05-26.37L90.05-26.37Q88.38-23.74 87.87-20.35L87.87-20.35L84.54 0L71.30 1.28L77.82-32.64L88.38-33.92L87.23-27.46L87.23-27.46Q90.37-33.92 97.41-33.92L97.41-33.92L97.41-33.92Q101.12-33.92 103.14-32L103.14-32L103.14-32Q105.15-30.08 105.15-26.14L105.15-26.14L105.15-26.14Q105.15-22.21 102.56-19.71L102.56-19.71L102.56-19.71Q99.97-17.22 95.55-17.22L95.55-17.22L95.55-17.22Q93.63-17.22 92.86-17.98ZM132.10-10.82L132.10-10.82L132.10-10.82Q133.70-9.73 133.70-7.33L133.70-7.33L133.70-7.33Q133.70-4.93 132.48-3.39L132.48-3.39L132.48-3.39Q131.26-1.86 129.28-0.83L129.28-0.83L129.28-0.83Q125.18 1.28 120.77 1.28L120.77 1.28L120.77 1.28Q116.35 1.28 113.76 0.32L113.76 0.32L113.76 0.32Q111.17-0.64 109.44-2.43L109.44-2.43L109.44-2.43Q106.05-5.82 106.05-12.03L106.05-12.03L106.05-12.03Q106.05-21.70 111.30-27.58L111.30-27.58L111.30-27.58Q116.93-33.92 126.72-33.92L126.72-33.92L126.72-33.92Q132.80-33.92 135.81-31.36L135.81-31.36L135.81-31.36Q138.05-29.44 138.05-26.30L138.05-26.30L138.05-26.30Q138.05-15.04 118.59-15.04L118.59-15.04L118.59-15.04Q118.34-13.38 118.34-11.97L118.34-11.97L118.34-11.97Q118.34-9.02 119.65-7.90L119.65-7.90L119.65-7.90Q120.96-6.78 123.39-6.78L123.39-6.78L123.39-6.78Q125.82-6.78 128.42-7.90L128.42-7.90L128.42-7.90Q131.01-9.02 132.10-10.82ZM119.04-17.79L119.04-17.79L119.04-17.79Q123.58-17.79 126.21-20.61L126.21-20.61L126.21-20.61Q128.83-23.30 128.83-27.58L128.83-27.58L128.83-27.58Q128.83-29.06 128.29-29.86L128.29-29.86L128.29-29.86Q127.74-30.66 126.66-30.66L126.66-30.66L126.66-30.66Q125.57-30.66 124.64-30.24L124.64-30.24L124.64-30.24Q123.71-29.82 122.75-28.42L122.75-28.42L122.75-28.42Q120.38-25.22 119.04-17.79ZM159.36-22.46L159.36-22.46L159.36-22.46Q160.26-24.83 160.26-26.88L160.26-26.88L160.26-26.88Q160.26-30.66 157.18-30.66L157.18-30.66L157.18-30.66Q155.58-30.66 154.27-29.22L154.27-29.22L154.27-29.22Q152.96-27.78 152.96-25.98L152.96-25.98L152.96-25.98Q152.96-24.70 153.98-23.68L153.98-23.68L153.98-23.68Q155.46-22.27 159.23-19.97L159.23-19.97L159.23-19.97Q163.01-17.66 164.45-15.78L164.45-15.78L164.45-15.78Q165.89-13.89 165.89-11.30L165.89-11.30L165.89-11.30Q165.89-8.70 164.64-6.34L164.64-6.34L164.64-6.34Q163.39-3.97 161.15-2.30L161.15-2.30L161.15-2.30Q156.35 1.28 148.67 1.28L148.67 1.28L148.67 1.28Q144.51 1.28 141.31-0.90L141.31-0.90L141.31-0.90Q138.11-3.01 138.11-5.50L138.11-5.50L138.11-5.50Q138.11-8 139.94-9.47L139.94-9.47L139.94-9.47Q141.76-10.94 144.45-10.94L144.45-10.94L144.45-10.94Q147.14-10.94 148.80-9.92L148.80-9.92L148.80-9.92Q147.97-7.81 147.97-6.40L147.97-6.40L147.97-6.40Q147.97-2.18 151.55-2.18L151.55-2.18L151.55-2.18Q153.09-2.18 154.11-3.14L154.11-3.14L154.11-3.14Q155.14-4.10 155.14-5.76L155.14-5.76L155.14-5.76Q155.14-9.02 149.63-12.48L149.63-12.48L149.63-12.48Q145.15-15.42 144.13-16.58L144.13-16.58L144.13-16.58Q142.40-18.62 142.40-21.18L142.40-21.18L142.40-21.18Q142.40-23.74 143.62-26.18L143.62-26.18L143.62-26.18Q144.83-28.61 147.07-30.34L147.07-30.34L147.07-30.34Q151.74-33.92 159.87-33.92L159.87-33.92L159.87-33.92Q164.03-33.92 166.50-32.26L166.50-32.26L166.50-32.26Q168.96-30.59 168.96-27.78L168.96-27.78L168.96-27.78Q168.96-24.96 167.26-23.36L167.26-23.36L167.26-23.36Q165.57-21.76 162.50-21.76L162.50-21.76L162.50-21.76Q160.38-21.76 159.36-22.46ZM172.35-6.40L172.35-6.40L172.35-6.40Q172.35-8.13 173.25-12.48L173.25-12.48L176.64-29.76L172.86-29.76L173.12-31.68L173.12-31.68Q180.80-33.98 188.22-39.62L188.22-39.62L191.30-39.62L189.76-32.64L194.75-32.64L194.18-29.76L189.25-29.76L185.98-12.48L185.98-12.48Q185.15-8.51 185.15-7.17L185.15-7.17L185.15-7.17Q185.15-4.10 187.84-3.46L187.84-3.46L187.84-3.46Q187.20-1.28 184.90 0L184.90 0L184.90 0Q182.59 1.28 179.33 1.28L179.33 1.28L179.33 1.28Q176.06 1.28 174.21-0.77L174.21-0.77L174.21-0.77Q172.35-2.82 172.35-6.40ZM236.74-33.92L236.74-33.92L236.74-33.92Q231.55-33.92 227.78-35.65L227.78-35.65L225.73-25.28L238.08-25.28L238.08-25.28Q238.08-21.89 236.38-19.74L236.38-19.74L236.38-19.74Q234.69-17.60 231.62-17.60L231.62-17.60L231.62-17.60Q228.29-17.60 225.22-18.82L225.22-18.82L225.22-18.82Q224.58-19.07 224.51-19.14L224.51-19.14L220.86 0L206.91 0L215.04-42.24L243.58-42.24L243.58-42.24Q243.58-38.34 241.76-36.13L241.76-36.13L241.76-36.13Q239.94-33.92 236.74-33.92ZM255.49 1.28L255.49 1.28L255.49 1.28Q241.41 1.28 241.41-11.97L241.41-11.97L241.41-11.97Q241.41-21.38 246.59-27.46L246.59-27.46L246.59-27.46Q252.10-33.92 261.63-33.92L261.63-33.92L261.63-33.92Q268.54-33.92 272.06-30.72L272.06-30.72L272.06-30.72Q275.58-27.52 275.58-20.80L275.58-20.80L275.58-20.80Q275.58-10.56 270.08-4.61L270.08-4.61L270.08-4.61Q264.70 1.28 255.49 1.28ZM257.15-26.56L257.15-26.56L257.15-26.56Q256.38-24.83 255.78-22.24L255.78-22.24L255.78-22.24Q255.17-19.65 254.40-15.55L254.40-15.55L254.40-15.55Q253.63-11.46 253.63-6.40L253.63-6.40L253.63-6.40Q253.63-4.74 254.18-3.65L254.18-3.65L254.18-3.65Q254.72-2.56 256.19-2.56L256.19-2.56L256.19-2.56Q257.66-2.56 258.59-3.26L258.59-3.26L258.59-3.26Q259.52-3.97 260.22-5.63L260.22-5.63L260.22-5.63Q261.50-8.58 262.53-14.05L262.53-14.05L262.53-14.05Q263.55-19.52 263.65-21.89L263.65-21.89L263.65-21.89Q263.74-24.26 263.74-26.02L263.74-26.02L263.74-26.02Q263.74-27.78 263.23-28.93L263.23-28.93L263.23-28.93Q262.72-30.08 261.28-30.08L261.28-30.08L261.28-30.08Q259.84-30.08 258.88-29.18L258.88-29.18L258.88-29.18Q257.92-28.29 257.15-26.56ZM310.78-26.62L310.78-26.62L310.78-26.62Q310.78-23.94 308.54-22.27L308.54-22.27L308.54-22.27Q306.30-20.61 302.66-20.61L302.66-20.61L302.66-20.61Q301.12-20.61 300.22-21.06L300.22-21.06L300.22-21.06Q300.93-22.72 301.15-24.80L301.15-24.80L301.15-24.80Q301.38-26.88 301.38-27.46L301.38-27.46L301.38-27.46Q301.38-30.14 299.52-30.14L299.52-30.14L299.52-30.14Q298.24-30.14 296.80-28.54L296.80-28.54L296.80-28.54Q295.36-26.94 294.14-24.45L294.14-24.45L294.14-24.45Q291.46-18.69 291.46-12.86L291.46-12.86L291.46-12.86Q291.46-9.66 292.67-8.22L292.67-8.22L292.67-8.22Q293.89-6.78 296.58-6.78L296.58-6.78L296.58-6.78Q300.29-6.78 303.23-9.86L303.23-9.86L303.23-9.86Q304.06-10.82 304.51-11.90L304.51-11.90L304.51-11.90Q306.94-10.62 306.94-7.10L306.94-7.10L306.94-7.10Q306.94-3.52 302.98-1.15L302.98-1.15L302.98-1.15Q298.88 1.28 292.35 1.28L292.35 1.28L292.35 1.28Q279.36 1.28 279.36-12.48L279.36-12.48L279.36-12.48Q279.36-22.53 285.06-28.29L285.06-28.29L285.06-28.29Q290.56-33.92 300.67-33.92L300.67-33.92L300.67-33.92Q310.78-33.92 310.78-26.62ZM333.06-2.69L333.06-2.69L333.06-2.69Q329.98 1.28 322.37 1.28L322.37 1.28L322.37 1.28Q318.40 1.28 315.52-1.12L315.52-1.12L315.52-1.12Q312.64-3.52 312.64-6.98L312.64-6.98L312.64-6.98Q312.64-8.90 312.83-9.86L312.83-9.86L317.12-32.64L330.11-33.92L325.44-9.22L325.44-9.22Q325.18-7.81 325.18-6.98L325.18-6.98L325.18-6.98Q325.18-3.26 327.42-3.26L327.42-3.26L327.42-3.26Q329.92-3.26 331.71-6.66L331.71-6.66L331.71-6.66Q332.29-7.74 332.54-9.15L332.54-9.15L337.09-32.64L349.70-33.92L344.96-8.96L344.96-8.96Q344.77-8 344.77-6.98L344.77-6.98L344.77-6.98Q344.77-5.95 345.34-4.83L345.34-4.83L345.34-4.83Q345.92-3.71 347.78-3.46L347.78-3.46L347.78-3.46Q347.39-1.92 346.05-0.90L346.05-0.90L346.05-0.90Q343.23 1.28 340.19 1.28L340.19 1.28L340.19 1.28Q337.15 1.28 335.36 0.19L335.36 0.19L335.36 0.19Q333.57-0.90 333.06-2.69ZM372.29-22.46L372.29-22.46L372.29-22.46Q373.18-24.83 373.18-26.88L373.18-26.88L373.18-26.88Q373.18-30.66 370.11-30.66L370.11-30.66L370.11-30.66Q368.51-30.66 367.20-29.22L367.20-29.22L367.20-29.22Q365.89-27.78 365.89-25.98L365.89-25.98L365.89-25.98Q365.89-24.70 366.91-23.68L366.91-23.68L366.91-23.68Q368.38-22.27 372.16-19.97L372.16-19.97L372.16-19.97Q375.94-17.66 377.38-15.78L377.38-15.78L377.38-15.78Q378.82-13.89 378.82-11.30L378.82-11.30L378.82-11.30Q378.82-8.70 377.57-6.34L377.57-6.34L377.57-6.34Q376.32-3.97 374.08-2.30L374.08-2.30L374.08-2.30Q369.28 1.28 361.60 1.28L361.60 1.28L361.60 1.28Q357.44 1.28 354.24-0.90L354.24-0.90L354.24-0.90Q351.04-3.01 351.04-5.50L351.04-5.50L351.04-5.50Q351.04-8 352.86-9.47L352.86-9.47L352.86-9.47Q354.69-10.94 357.38-10.94L357.38-10.94L357.38-10.94Q360.06-10.94 361.73-9.92L361.73-9.92L361.73-9.92Q360.90-7.81 360.90-6.40L360.90-6.40L360.90-6.40Q360.90-2.18 364.48-2.18L364.48-2.18L364.48-2.18Q366.02-2.18 367.04-3.14L367.04-3.14L367.04-3.14Q368.06-4.10 368.06-5.76L368.06-5.76L368.06-5.76Q368.06-9.02 362.56-12.48L362.56-12.48L362.56-12.48Q358.08-15.42 357.06-16.58L357.06-16.58L357.06-16.58Q355.33-18.62 355.33-21.18L355.33-21.18L355.33-21.18Q355.33-23.74 356.54-26.18L356.54-26.18L356.54-26.18Q357.76-28.61 360.00-30.34L360.00-30.34L360.00-30.34Q364.67-33.92 372.80-33.92L372.80-33.92L372.80-33.92Q376.96-33.92 379.42-32.26L379.42-32.26L379.42-32.26Q381.89-30.59 381.89-27.78L381.89-27.78L381.89-27.78Q381.89-24.96 380.19-23.36L380.19-23.36L380.19-23.36Q378.50-21.76 375.42-21.76L375.42-21.76L375.42-21.76Q373.31-21.76 372.29-22.46ZM410.18-10.82L410.18-10.82L410.18-10.82Q411.78-9.73 411.78-7.33L411.78-7.33L411.78-7.33Q411.78-4.93 410.56-3.39L410.56-3.39L410.56-3.39Q409.34-1.86 407.36-0.83L407.36-0.83L407.36-0.83Q403.26 1.28 398.85 1.28L398.85 1.28L398.85 1.28Q394.43 1.28 391.84 0.32L391.84 0.32L391.84 0.32Q389.25-0.64 387.52-2.43L387.52-2.43L387.52-2.43Q384.13-5.82 384.13-12.03L384.13-12.03L384.13-12.03Q384.13-21.70 389.38-27.58L389.38-27.58L389.38-27.58Q395.01-33.92 404.80-33.92L404.80-33.92L404.80-33.92Q410.88-33.92 413.89-31.36L413.89-31.36L413.89-31.36Q416.13-29.44 416.13-26.30L416.13-26.30L416.13-26.30Q416.13-15.04 396.67-15.04L396.67-15.04L396.67-15.04Q396.42-13.38 396.42-11.97L396.42-11.97L396.42-11.97Q396.42-9.02 397.73-7.90L397.73-7.90L397.73-7.90Q399.04-6.78 401.47-6.78L401.47-6.78L401.47-6.78Q403.90-6.78 406.50-7.90L406.50-7.90L406.50-7.90Q409.09-9.02 410.18-10.82ZM397.12-17.79L397.12-17.79L397.12-17.79Q401.66-17.79 404.29-20.61L404.29-20.61L404.29-20.61Q406.91-23.30 406.91-27.58L406.91-27.58L406.91-27.58Q406.91-29.06 406.37-29.86L406.37-29.86L406.37-29.86Q405.82-30.66 404.74-30.66L404.74-30.66L404.74-30.66Q403.65-30.66 402.72-30.24L402.72-30.24L402.72-30.24Q401.79-29.82 400.83-28.42L400.83-28.42L400.83-28.42Q398.46-25.22 397.12-17.79ZM438.34-17.98L438.34-17.98L438.34-17.98Q440.64-22.08 440.64-26.24L440.64-26.24L440.64-26.24Q440.64-28.99 438.66-28.99L438.66-28.99L438.66-28.99Q437.12-28.99 435.52-26.37L435.52-26.37L435.52-26.37Q433.86-23.74 433.34-20.35L433.34-20.35L430.02 0L416.77 1.28L423.30-32.64L433.86-33.92L432.70-27.46L432.70-27.46Q435.84-33.92 442.88-33.92L442.88-33.92L442.88-33.92Q446.59-33.92 448.61-32L448.61-32L448.61-32Q450.62-30.08 450.62-26.14L450.62-26.14L450.62-26.14Q450.62-22.21 448.03-19.71L448.03-19.71L448.03-19.71Q445.44-17.22 441.02-17.22L441.02-17.22L441.02-17.22Q439.10-17.22 438.34-17.98Z" fill="#2a9d8f"></path></g></g><style>text {
  font-size: 64px;
  font-family: Arial Black;
  dominant-baseline: central;
  text-anchor: middle;
}</style></svg>