<svg width="294.9324951171875px" height="88.42493896484375px" xmlns="http://www.w3.org/2000/svg" viewBox="102.53375244140625 30.787530517578126 294.9324951171875 88.42493896484375" style="background: rgba(0, 0, 0, 0);" preserveAspectRatio="xMidYMid"><defs><filter id="editing-extrusion" x="-100%" y="-100%" width="300%" height="300%"><feFlood result="color1" flood-color="#000000"></feFlood><feConvolveMatrix order="16,16" divisor="1" kernelMatrix="1 0 0 0 0 0 0 0 0 0 0 0 0 0 0 0 0 1 0 0 0 0 0 0 0 0 0 0 0 0 0 0 0 0 1 0 0 0 0 0 0 0 0 0 0 0 0 0 0 0 0 1 0 0 0 0 0 0 0 0 0 0 0 0 0 0 0 0 1 0 0 0 0 0 0 0 0 0 0 0 0 0 0 0 0 1 0 0 0 0 0 0 0 0 0 0 0 0 0 0 0 0 1 0 0 0 0 0 0 0 0 0 0 0 0 0 0 0 0 1 0 0 0 0 0 0 0 0 0 0 0 0 0 0 0 0 1 0 0 0 0 0 0 0 0 0 0 0 0 0 0 0 0 1 0 0 0 0 0 0 0 0 0 0 0 0 0 0 0 0 1 0 0 0 0 0 0 0 0 0 0 0 0 0 0 0 0 1 0 0 0 0 0 0 0 0 0 0 0 0 0 0 0 0 1 0 0 0 0 0 0 0 0 0 0 0 0 0 0 0 0 1 0 0 0 0 0 0 0 0 0 0 0 0 0 0 0 0 1 0 0 0 0 0 0 0 0 0 0 0 0 0 0 0 0 1" in="SourceAlpha" result="extrude"></feConvolveMatrix><feComposite in="color1" in2="extrude" result="comp-extrude" operator="in"></feComposite><feOffset dx="8" dy="8" in="comp-extrude" result="offset-extrude"></feOffset><feMerge><feMergeNode in="offset-extrude"></feMergeNode><feMergeNode in="SourceGraphic"></feMergeNode></feMerge></filter></defs><g filter="url(#editing-extrusion)"><g transform="translate(147.52499842643738, 93.75)"><path d="M13 0L13 0L5.25 0L5.25 0Q4.30 0 3.88-0.43L3.88-0.43L3.88-0.43Q3.45-0.85 3.45-1.80L3.45-1.80L3.45-34.20L3.45-34.20Q3.45-35.15 3.88-35.58L3.88-35.58L3.88-35.58Q4.30-36 5.25-36L5.25-36L27.55-36L27.55-36Q28.50-36 28.93-35.58L28.93-35.58L28.93-35.58Q29.35-35.15 29.35-34.20L29.35-34.20L29.35-28.25L29.35-28.25Q29.35-27.30 28.93-26.88L28.93-26.88L28.93-26.88Q28.50-26.45 27.55-26.45L27.55-26.45L14.80-26.45L14.80-21.25L23.50-21.25L23.50-21.25Q24.45-21.25 24.88-20.83L24.88-20.83L24.88-20.83Q25.30-20.40 25.30-19.45L25.30-19.45L25.30-13.45L25.30-13.45Q25.30-12.50 24.88-12.08L24.88-12.08L24.88-12.08Q24.45-11.65 23.50-11.65L23.50-11.65L14.80-11.65L14.80-1.80L14.80-1.80Q14.80-0.85 14.38-0.43L14.38-0.43L14.38-0.43Q13.95 0 13 0ZM64.85-26.50L64.85-9.45L64.85-9.45Q64.85-7.15 64.17-5.28L64.17-5.28L64.17-5.28Q63.50-3.40 61.78-2.08L61.78-2.08L61.78-2.08Q60.05-0.75 57.03 0L57.03 0L57.03 0Q54 0.75 49.35 0.75L49.35 0.75L49.35 0.75Q44.70 0.75 41.65 0L41.65 0L41.65 0Q38.60-0.75 36.88-2.08L36.88-2.08L36.88-2.08Q35.15-3.40 34.48-5.28L34.48-5.28L34.48-5.28Q33.80-7.15 33.80-9.45L33.80-9.45L33.80-26.50L33.80-26.50Q33.80-28.80 34.48-30.68L34.48-30.68L34.48-30.68Q35.15-32.55 36.88-33.90L36.88-33.90L36.88-33.90Q38.60-35.25 41.65-36L41.65-36L41.65-36Q44.70-36.75 49.35-36.75L49.35-36.75L49.35-36.75Q54-36.75 57.03-36L57.03-36L57.03-36Q60.05-35.25 61.78-33.90L61.78-33.90L61.78-33.90Q63.50-32.55 64.17-30.68L64.17-30.68L64.17-30.68Q64.85-28.80 64.85-26.50L64.85-26.50ZM45.15-24.70L45.15-11.25L45.15-11.25Q45.15-10.25 45.90-9.58L45.90-9.58L45.90-9.58Q46.65-8.90 49.35-8.90L49.35-8.90L49.35-8.90Q52.05-8.90 52.80-9.58L52.80-9.58L52.80-9.58Q53.55-10.25 53.55-11.25L53.55-11.25L53.55-24.70L53.55-24.70Q53.55-25.65 52.80-26.33L52.80-26.33L52.80-26.33Q52.05-27 49.35-27L49.35-27L49.35-27Q46.65-27 45.90-26.33L45.90-26.33L45.90-26.33Q45.15-25.65 45.15-24.70L45.15-24.70ZM86.25-27L82.50-27L82.50-20.60L86.25-20.60L86.25-20.60Q87.55-20.60 88-21.28L88-21.28L88-21.28Q88.45-21.95 88.45-22.95L88.45-22.95L88.45-24.65L88.45-24.65Q88.45-25.65 88-26.33L88-26.33L88-26.33Q87.55-27 86.25-27L86.25-27ZM80.70 0L80.70 0L73 0L73 0Q72.05 0 71.63-0.43L71.63-0.43L71.63-0.43Q71.20-0.85 71.20-1.80L71.20-1.80L71.20-34.20L71.20-34.20Q71.20-35.15 71.63-35.58L71.63-35.58L71.63-35.58Q72.05-36 73-36L73-36L89.65-36L89.65-36Q95.25-36 97.38-33.68L97.38-33.68L97.38-33.68Q99.50-31.35 99.50-27.65L99.50-27.65L99.50-25.35L99.50-25.35Q99.50-23.25 98.88-21.78L98.88-21.78L98.88-21.78Q98.25-20.30 96.70-19.65L96.70-19.65L96.70-19.65Q99.40-19.35 101.08-17.45L101.08-17.45L101.08-17.45Q102.75-15.55 102.75-12.40L102.75-12.40L102.75-1.80L102.75-1.80Q102.75-0.85 102.33-0.43L102.33-0.43L102.33-0.43Q101.90 0 100.95 0L100.95 0L93.20 0L93.20 0Q92.25 0 91.83-0.43L91.83-0.43L91.83-0.43Q91.40-0.85 91.40-1.80L91.40-1.80L91.40-9.45L91.40-9.45Q91.40-10.55 90.97-11.08L90.97-11.08L90.97-11.08Q90.55-11.60 89.50-11.60L89.50-11.60L82.50-11.60L82.50-1.80L82.50-1.80Q82.50-0.85 82.08-0.43L82.08-0.43L82.08-0.43Q81.65 0 80.70 0ZM133.35 0L133.35 0L110.15 0L110.15 0Q109.20 0 108.78-0.43L108.78-0.43L108.78-0.43Q108.35-0.85 108.35-1.80L108.35-1.80L108.35-34.20L108.35-34.20Q108.35-35.15 108.78-35.58L108.78-35.58L108.78-35.58Q109.20-36 110.15-36L110.15-36L133.35-36L133.35-36Q134.30-36 134.73-35.58L134.73-35.58L134.73-35.58Q135.15-35.15 135.15-34.20L135.15-34.20L135.15-28.35L135.15-28.35Q135.15-27.40 134.73-26.98L134.73-26.98L134.73-26.98Q134.30-26.55 133.35-26.55L133.35-26.55L119.55-26.55L119.55-22.70L129.30-22.70L129.30-22.70Q130.25-22.70 130.68-22.28L130.68-22.28L130.68-22.28Q131.10-21.85 131.10-20.90L131.10-20.90L131.10-15.55L131.10-15.55Q131.10-14.60 130.68-14.18L130.68-14.18L130.68-14.18Q130.25-13.75 129.30-13.75L129.30-13.75L119.55-13.75L119.55-9.45L133.35-9.45L133.35-9.45Q134.30-9.45 134.73-9.03L134.73-9.03L134.73-9.03Q135.15-8.60 135.15-7.65L135.15-7.65L135.15-1.80L135.15-1.80Q135.15-0.85 134.73-0.43L134.73-0.43L134.73-0.43Q134.30 0 133.35 0ZM157.75 0L157.75 0L141.95 0L141.95 0Q141.00 0 140.58-0.43L140.58-0.43L140.58-0.43Q140.15-0.85 140.15-1.80L140.15-1.80L140.15-7.65L140.15-7.65Q140.15-8.60 140.58-9.03L140.58-9.03L140.58-9.03Q141.00-9.45 141.95-9.45L141.95-9.45L155.40-9.45L155.40-9.45Q156.05-9.45 156.38-9.88L156.38-9.88L156.38-9.88Q156.70-10.30 156.70-10.90L156.70-10.90L156.70-10.90Q156.70-11.75 156.38-12.15L156.38-12.15L156.38-12.15Q156.05-12.55 155.40-12.60L155.40-12.60L147.90-13.65L147.90-13.65Q144.40-14.15 142.28-15.95L142.28-15.95L142.28-15.95Q140.15-17.75 140.15-21.95L140.15-21.95L140.15-27.20L140.15-27.20Q140.15-31.45 142.90-33.73L142.90-33.73L142.90-33.73Q145.65-36 150.50-36L150.50-36L164.50-36L164.50-36Q165.45-36 165.88-35.58L165.88-35.58L165.88-35.58Q166.30-35.15 166.30-34.20L166.30-34.20L166.30-28.25L166.30-28.25Q166.30-27.30 165.88-26.88L165.88-26.88L165.88-26.88Q165.45-26.45 164.50-26.45L164.50-26.45L152.85-26.45L152.85-26.45Q152.20-26.45 151.85-26.03L151.85-26.03L151.85-26.03Q151.50-25.60 151.50-24.95L151.50-24.95L151.50-24.95Q151.50-24.30 151.85-23.85L151.85-23.85L151.85-23.85Q152.20-23.40 152.85-23.35L152.85-23.35L160.30-22.35L160.30-22.35Q163.80-21.85 165.95-20.05L165.95-20.05L165.95-20.05Q168.10-18.25 168.10-14.05L168.10-14.05L168.10-8.80L168.10-8.80Q168.10-4.55 165.33-2.27L165.33-2.27L165.33-2.27Q162.55 0 157.75 0ZM190.55 0L190.55 0L182.45 0L182.45 0Q181.50 0 181.08-0.43L181.08-0.43L181.08-0.43Q180.65-0.85 180.65-1.80L180.65-1.80L180.65-26.35L173.30-26.35L173.30-26.35Q172.35-26.35 171.93-26.78L171.93-26.78L171.93-26.78Q171.50-27.20 171.50-28.15L171.50-28.15L171.50-34.20L171.50-34.20Q171.50-35.15 171.93-35.58L171.93-35.58L171.93-35.58Q172.35-36 173.30-36L173.30-36L199.70-36L199.70-36Q200.65-36 201.08-35.58L201.08-35.58L201.08-35.58Q201.50-35.15 201.50-34.20L201.50-34.20L201.50-28.15L201.50-28.15Q201.50-27.20 201.08-26.78L201.08-26.78L201.08-26.78Q200.65-26.35 199.70-26.35L199.70-26.35L192.35-26.35L192.35-1.80L192.35-1.80Q192.35-0.85 191.93-0.43L191.93-0.43L191.93-0.43Q191.50 0 190.55 0Z" fill="#e76f51"></path></g></g><style>text {
  font-size: 64px;
  font-family: Arial Black;
  dominant-baseline: central;
  text-anchor: middle;
}</style></svg>