<svg width="257.8724609375px" height="88.4249755859375px" xmlns="http://www.w3.org/2000/svg"
  viewBox="121.06376953124999 30.78751220703125 257.8724609375 88.4249755859375" style="background: rgba(0, 0, 0, 0);"
  preserveAspectRatio="xMidYMid">
  <defs>
    <filter id="editing-extrusion" x="-100%" y="-100%" width="300%" height="300%">
      <feFlood result="color1" flood-color="#000000"></feFlood>
      <feConvolveMatrix order="16,16" divisor="1"
        kernelMatrix="1 0 0 0 0 0 0 0 0 0 0 0 0 0 0 0 0 1 0 0 0 0 0 0 0 0 0 0 0 0 0 0 0 0 1 0 0 0 0 0 0 0 0 0 0 0 0 0 0 0 0 1 0 0 0 0 0 0 0 0 0 0 0 0 0 0 0 0 1 0 0 0 0 0 0 0 0 0 0 0 0 0 0 0 0 1 0 0 0 0 0 0 0 0 0 0 0 0 0 0 0 0 1 0 0 0 0 0 0 0 0 0 0 0 0 0 0 0 0 1 0 0 0 0 0 0 0 0 0 0 0 0 0 0 0 0 1 0 0 0 0 0 0 0 0 0 0 0 0 0 0 0 0 1 0 0 0 0 0 0 0 0 0 0 0 0 0 0 0 0 1 0 0 0 0 0 0 0 0 0 0 0 0 0 0 0 0 1 0 0 0 0 0 0 0 0 0 0 0 0 0 0 0 0 1 0 0 0 0 0 0 0 0 0 0 0 0 0 0 0 0 1 0 0 0 0 0 0 0 0 0 0 0 0 0 0 0 0 1 0 0 0 0 0 0 0 0 0 0 0 0 0 0 0 0 1"
        in="SourceAlpha" result="extrude"></feConvolveMatrix>
      <feComposite in="color1" in2="extrude" result="comp-extrude" operator="in"></feComposite>
      <feOffset dx="8" dy="8" in="comp-extrude" result="offset-extrude"></feOffset>
      <feMerge>
        <feMergeNode in="offset-extrude"></feMergeNode>
        <feMergeNode in="SourceGraphic"></feMergeNode>
      </feMerge>
    </filter>
  </defs>
  <g filter="url(#editing-extrusion)">
    <g transform="translate(161.89999842643738, 93)">
      <path
        d="M18.50-27L14.75-27L14.75-20.60L18.50-20.60L18.50-20.60Q19.80-20.60 20.25-21.28L20.25-21.28L20.25-21.28Q20.70-21.95 20.70-22.95L20.70-22.95L20.70-24.65L20.70-24.65Q20.70-25.65 20.25-26.33L20.25-26.33L20.25-26.33Q19.80-27 18.50-27L18.50-27ZM12.95 0L12.95 0L5.25 0L5.25 0Q4.30 0 3.88-0.43L3.88-0.43L3.88-0.43Q3.45-0.85 3.45-1.80L3.45-1.80L3.45-34.20L3.45-34.20Q3.45-35.15 3.88-35.58L3.88-35.58L3.88-35.58Q4.30-36 5.25-36L5.25-36L21.90-36L21.90-36Q27.50-36 29.63-33.68L29.63-33.68L29.63-33.68Q31.75-31.35 31.75-27.65L31.75-27.65L31.75-25.35L31.75-25.35Q31.75-23.25 31.13-21.78L31.13-21.78L31.13-21.78Q30.50-20.30 28.95-19.65L28.95-19.65L28.95-19.65Q31.65-19.35 33.33-17.45L33.33-17.45L33.33-17.45Q35-15.55 35-12.40L35-12.40L35-1.80L35-1.80Q35-0.85 34.58-0.43L34.58-0.43L34.58-0.43Q34.15 0 33.20 0L33.20 0L25.45 0L25.45 0Q24.50 0 24.08-0.43L24.08-0.43L24.08-0.43Q23.65-0.85 23.65-1.80L23.65-1.80L23.65-9.45L23.65-9.45Q23.65-10.55 23.23-11.08L23.23-11.08L23.23-11.08Q22.80-11.60 21.75-11.60L21.75-11.60L14.75-11.60L14.75-1.80L14.75-1.80Q14.75-0.85 14.33-0.43L14.33-0.43L14.33-0.43Q13.90 0 12.95 0ZM53.65-25.50L53.65-25.50L51.30-17.90L59.15-17.90L56.80-25.50L56.80-25.50Q56.60-25.95 56.38-26.15L56.38-26.15L56.38-26.15Q56.15-26.35 55.85-26.35L55.85-26.35L54.60-26.35L54.60-26.35Q54.30-26.35 54.08-26.15L54.08-26.15L54.08-26.15Q53.85-25.95 53.65-25.50ZM50.80-8.80L50.80-1.80L50.80-1.80Q50.80-0.85 50.38-0.43L50.38-0.43L50.38-0.43Q49.95 0 49 0L49 0L41.65 0L41.65 0Q40.70 0 40.27-0.43L40.27-0.43L40.27-0.43Q39.85-0.85 39.85-1.80L39.85-1.80L39.85-15L39.85-15Q39.85-16.50 40.32-18.45L40.32-18.45L40.32-18.45Q40.80-20.40 41.80-23L41.80-23L46.15-34.35L46.15-34.35Q46.45-35.20 47.08-35.60L47.08-35.60L47.08-35.60Q47.70-36 48.70-36L48.70-36L62.15-36L62.15-36Q63.10-36 63.73-35.60L63.73-35.60L63.73-35.60Q64.35-35.20 64.65-34.35L64.65-34.35L69-23L69-23Q70-20.40 70.47-18.45L70.47-18.45L70.47-18.45Q70.95-16.50 70.95-15L70.95-15L70.95-1.80L70.95-1.80Q70.95-0.85 70.53-0.43L70.53-0.43L70.53-0.43Q70.10 0 69.15 0L69.15 0L61.60 0L61.60 0Q60.60 0 60.13-0.43L60.13-0.43L60.13-0.43Q59.65-0.85 59.65-1.80L59.65-1.80L59.65-8.80L50.80-8.80ZM101.05 0L101.05 0L88.85 0L88.85 0Q82.60 0 79.58-2.50L79.58-2.50L79.58-2.50Q76.55-5 76.55-10.20L76.55-10.20L76.55-25.75L76.55-25.75Q76.55-30.95 79.58-33.48L79.58-33.48L79.58-33.48Q82.60-36 88.85-36L88.85-36L101.05-36L101.05-36Q102-36 102.43-35.58L102.43-35.58L102.43-35.58Q102.85-35.15 102.85-34.20L102.85-34.20L102.85-28.15L102.85-28.15Q102.85-27.20 102.43-26.78L102.43-26.78L102.43-26.78Q102-26.35 101.05-26.35L101.05-26.35L91-26.35L91-26.35Q89.45-26.35 88.70-25.73L88.70-25.73L88.70-25.73Q87.95-25.10 87.95-23.85L87.95-23.85L87.95-11.95L87.95-11.95Q87.95-10.70 88.70-10.13L88.70-10.13L88.70-10.13Q89.45-9.55 91-9.55L91-9.55L101.05-9.55L101.05-9.55Q102-9.55 102.43-9.13L102.43-9.13L102.43-9.13Q102.85-8.70 102.85-7.75L102.85-7.75L102.85-1.80L102.85-1.80Q102.85-0.85 102.43-0.43L102.43-0.43L102.43-0.43Q102 0 101.05 0ZM133.50 0L133.50 0L110.30 0L110.30 0Q109.35 0 108.93-0.43L108.93-0.43L108.93-0.43Q108.50-0.85 108.50-1.80L108.50-1.80L108.50-34.20L108.50-34.20Q108.50-35.15 108.93-35.58L108.93-35.58L108.93-35.58Q109.35-36 110.30-36L110.30-36L133.50-36L133.50-36Q134.45-36 134.88-35.58L134.88-35.58L134.88-35.58Q135.30-35.15 135.30-34.20L135.30-34.20L135.30-28.35L135.30-28.35Q135.30-27.40 134.88-26.98L134.88-26.98L134.88-26.98Q134.45-26.55 133.50-26.55L133.50-26.55L119.70-26.55L119.70-22.70L129.45-22.70L129.45-22.70Q130.40-22.70 130.83-22.28L130.83-22.28L130.83-22.28Q131.25-21.85 131.25-20.90L131.25-20.90L131.25-15.55L131.25-15.55Q131.25-14.60 130.83-14.18L130.83-14.18L130.83-14.18Q130.40-13.75 129.45-13.75L129.45-13.75L119.70-13.75L119.70-9.45L133.50-9.45L133.50-9.45Q134.45-9.45 134.88-9.03L134.88-9.03L134.88-9.03Q135.30-8.60 135.30-7.65L135.30-7.65L135.30-1.80L135.30-1.80Q135.30-0.85 134.88-0.43L134.88-0.43L134.88-0.43Q134.45 0 133.50 0ZM156.25-27L152.50-27L152.50-20.60L156.25-20.60L156.25-20.60Q157.55-20.60 158-21.28L158-21.28L158-21.28Q158.45-21.95 158.45-22.95L158.45-22.95L158.45-24.65L158.45-24.65Q158.45-25.65 158-26.33L158-26.33L158-26.33Q157.55-27 156.25-27L156.25-27ZM150.70 0L150.70 0L143 0L143 0Q142.05 0 141.63-0.43L141.63-0.43L141.63-0.43Q141.20-0.85 141.20-1.80L141.20-1.80L141.20-34.20L141.20-34.20Q141.20-35.15 141.63-35.58L141.63-35.58L141.63-35.58Q142.05-36 143-36L143-36L159.65-36L159.65-36Q165.25-36 167.38-33.68L167.38-33.68L167.38-33.68Q169.50-31.35 169.50-27.65L169.50-27.65L169.50-25.35L169.50-25.35Q169.50-23.25 168.88-21.78L168.88-21.78L168.88-21.78Q168.25-20.30 166.70-19.65L166.70-19.65L166.70-19.65Q169.40-19.35 171.07-17.45L171.07-17.45L171.07-17.45Q172.75-15.55 172.75-12.40L172.75-12.40L172.75-1.80L172.75-1.80Q172.75-0.85 172.32-0.43L172.32-0.43L172.32-0.43Q171.90 0 170.95 0L170.95 0L163.20 0L163.20 0Q162.25 0 161.82-0.43L161.82-0.43L161.82-0.43Q161.40-0.85 161.40-1.80L161.40-1.80L161.40-9.45L161.40-9.45Q161.40-10.55 160.97-11.08L160.97-11.08L160.97-11.08Q160.55-11.60 159.50-11.60L159.50-11.60L152.50-11.60L152.50-1.80L152.50-1.80Q152.50-0.85 152.07-0.43L152.07-0.43L152.07-0.43Q151.65 0 150.70 0Z"
        fill="#e9c46a"></path>
    </g>
  </g>
  <style>
    text {
      font-size: 64px;
      font-family: Arial Black;
      dominant-baseline: central;
      text-anchor: middle;
    }
  </style>
</svg>