<svg width="160.547509765625px" height="88.4249755859375px" xmlns="http://www.w3.org/2000/svg" viewBox="169.7262451171875 30.78751220703125 160.547509765625 88.4249755859375" style="background: rgba(0, 0, 0, 0);" preserveAspectRatio="xMidYMid"><defs><filter id="editing-extrusion" x="-100%" y="-100%" width="300%" height="300%"><feFlood result="color1" flood-color="#000000"></feFlood><feConvolveMatrix order="16,16" divisor="1" kernelMatrix="1 0 0 0 0 0 0 0 0 0 0 0 0 0 0 0 0 1 0 0 0 0 0 0 0 0 0 0 0 0 0 0 0 0 1 0 0 0 0 0 0 0 0 0 0 0 0 0 0 0 0 1 0 0 0 0 0 0 0 0 0 0 0 0 0 0 0 0 1 0 0 0 0 0 0 0 0 0 0 0 0 0 0 0 0 1 0 0 0 0 0 0 0 0 0 0 0 0 0 0 0 0 1 0 0 0 0 0 0 0 0 0 0 0 0 0 0 0 0 1 0 0 0 0 0 0 0 0 0 0 0 0 0 0 0 0 1 0 0 0 0 0 0 0 0 0 0 0 0 0 0 0 0 1 0 0 0 0 0 0 0 0 0 0 0 0 0 0 0 0 1 0 0 0 0 0 0 0 0 0 0 0 0 0 0 0 0 1 0 0 0 0 0 0 0 0 0 0 0 0 0 0 0 0 1 0 0 0 0 0 0 0 0 0 0 0 0 0 0 0 0 1 0 0 0 0 0 0 0 0 0 0 0 0 0 0 0 0 1 0 0 0 0 0 0 0 0 0 0 0 0 0 0 0 0 1" in="SourceAlpha" result="extrude"></feConvolveMatrix><feComposite in="color1" in2="extrude" result="comp-extrude" operator="in"></feComposite><feOffset dx="8" dy="8" in="comp-extrude" result="offset-extrude"></feOffset><feMerge><feMergeNode in="offset-extrude"></feMergeNode><feMergeNode in="SourceGraphic"></feMergeNode></feMerge></filter></defs><g filter="url(#editing-extrusion)"><g transform="translate(198.90000081062317, 93)"><path d="M28.90 0L28.90 0L4.10 0L4.10 0Q3.15 0 2.73-0.43L2.73-0.43L2.73-0.43Q2.30-0.85 2.30-1.80L2.30-1.80L2.30-8.50L2.30-8.50Q2.30-9.45 2.60-10.18L2.60-10.18L2.60-10.18Q2.90-10.90 3.55-11.60L3.55-11.60L15.70-26.35L5-26.35L5-26.35Q4.05-26.35 3.63-26.78L3.63-26.78L3.63-26.78Q3.20-27.20 3.20-28.15L3.20-28.15L3.20-34.20L3.20-34.20Q3.20-35.15 3.63-35.58L3.63-35.58L3.63-35.58Q4.05-36 5-36L5-36L28-36L28-36Q28.95-36 29.38-35.58L29.38-35.58L29.38-35.58Q29.80-35.15 29.80-34.20L29.80-34.20L29.80-26.75L29.80-26.75Q29.80-25.75 29.50-25.03L29.50-25.03L29.50-25.03Q29.20-24.30 28.55-23.60L28.55-23.60L16.95-9.55L28.90-9.55L28.90-9.55Q29.85-9.55 30.28-9.13L30.28-9.13L30.28-9.13Q30.70-8.70 30.70-7.75L30.70-7.75L30.70-1.80L30.70-1.80Q30.70-0.85 30.28-0.43L30.28-0.43L30.28-0.43Q29.85 0 28.90 0ZM61.45 0L61.45 0L38.25 0L38.25 0Q37.30 0 36.88-0.43L36.88-0.43L36.88-0.43Q36.45-0.85 36.45-1.80L36.45-1.80L36.45-34.20L36.45-34.20Q36.45-35.15 36.88-35.58L36.88-35.58L36.88-35.58Q37.30-36 38.25-36L38.25-36L61.45-36L61.45-36Q62.40-36 62.83-35.58L62.83-35.58L62.83-35.58Q63.25-35.15 63.25-34.20L63.25-34.20L63.25-28.35L63.25-28.35Q63.25-27.40 62.83-26.98L62.83-26.98L62.83-26.98Q62.40-26.55 61.45-26.55L61.45-26.55L47.65-26.55L47.65-22.70L57.40-22.70L57.40-22.70Q58.35-22.70 58.78-22.28L58.78-22.28L58.78-22.28Q59.20-21.85 59.20-20.90L59.20-20.90L59.20-15.55L59.20-15.55Q59.20-14.60 58.78-14.18L58.78-14.18L58.78-14.18Q58.35-13.75 57.40-13.75L57.40-13.75L47.65-13.75L47.65-9.45L61.45-9.45L61.45-9.45Q62.40-9.45 62.83-9.03L62.83-9.03L62.83-9.03Q63.25-8.60 63.25-7.65L63.25-7.65L63.25-1.80L63.25-1.80Q63.25-0.85 62.83-0.43L62.83-0.43L62.83-0.43Q62.40 0 61.45 0ZM78.45 0L78.45 0L70.95 0L70.95 0Q70 0 69.58-0.43L69.58-0.43L69.58-0.43Q69.15-0.85 69.15-1.80L69.15-1.80L69.15-34.20L69.15-34.20Q69.15-35.15 69.58-35.58L69.58-35.58L69.58-35.58Q70-36 70.95-36L70.95-36L76.15-36L76.15-36Q77.10-36 77.78-35.70L77.78-35.70L77.78-35.70Q78.45-35.40 79.10-34.65L79.10-34.65L88.80-23.55L88.80-34.20L88.80-34.20Q88.80-35.15 89.23-35.58L89.23-35.58L89.23-35.58Q89.65-36 90.60-36L90.60-36L98.10-36L98.10-36Q99.05-36 99.47-35.58L99.47-35.58L99.47-35.58Q99.90-35.15 99.90-34.20L99.90-34.20L99.90-1.80L99.90-1.80Q99.90-0.85 99.47-0.43L99.47-0.43L99.47-0.43Q99.05 0 98.10 0L98.10 0L90.60 0L90.60 0Q89.65 0 89.23-0.43L89.23-0.43L89.23-0.43Q88.80-0.85 88.80-1.80L88.80-1.80L88.80-7.95L80.25-18.30L80.25-1.80L80.25-1.80Q80.25-0.85 79.83-0.43L79.83-0.43L79.83-0.43Q79.40 0 78.45 0Z" fill="#2a9d8f"></path></g></g><style>text {
  font-size: 64px;
  font-family: Arial Black;
  dominant-baseline: central;
  text-anchor: middle;
}</style></svg>