<svg width="592.51748046875px" height="99.2199951171875px" xmlns="http://www.w3.org/2000/svg"
  viewBox="-46.25874023437501 25.390002441406253 592.51748046875 99.2199951171875" style="background: rgba(0, 0, 0, 0);"
  preserveAspectRatio="xMidYMid">
  <defs>
    <filter id="editing-extrusion" x="-100%" y="-100%" width="300%" height="300%">
      <feFlood result="color1" flood-color="#000000"></feFlood>
      <feConvolveMatrix order="8,8" divisor="1"
        kernelMatrix="1 0 0 0 0 0 0 0 0 1 0 0 0 0 0 0 0 0 1 0 0 0 0 0 0 0 0 1 0 0 0 0 0 0 0 0 1 0 0 0 0 0 0 0 0 1 0 0 0 0 0 0 0 0 1 0 0 0 0 0 0 0 0 1"
        in="SourceAlpha" result="extrude"></feConvolveMatrix>
      <feComposite in="color1" in2="extrude" result="comp-extrude" operator="in"></feComposite>
      <feOffset dx="4" dy="4" in="comp-extrude" result="offset-extrude"></feOffset>
      <feMerge>
        <feMergeNode in="offset-extrude"></feMergeNode>
        <feMergeNode in="SourceGraphic"></feMergeNode>
      </feMerge>
    </filter>
  </defs>
  <g filter="url(#editing-extrusion)">
    <g transform="translate(39.20000910758972, 98.02499961853027)">
      <path
        d="M26.95-10.35L26.95-10.35L26.95-10.35Q28.25-9.40 28.25-7.38L28.25-7.38L28.25-7.38Q28.25-5.35 27.38-3.93L27.38-3.93L27.38-3.93Q26.50-2.50 24.80-1.40L24.80-1.40L24.80-1.40Q21.15 0.95 14.78 0.95L14.78 0.95L14.78 0.95Q8.40 0.95 4.93-2.38L4.93-2.38L4.93-2.38Q1.45-5.70 1.45-11.60L1.45-11.60L1.45-11.60Q1.45-19.95 5.80-26.30L5.80-26.30L5.80-26.30Q9.10-31 15-33L15-33L15-33Q18.05-34 21.05-34L21.05-34L21.05-34Q24.05-34 25.90-33.60L25.90-33.60L25.90-33.60Q27.75-33.20 29.15-32.40L29.15-32.40L29.15-32.40Q32.20-30.65 32.20-27.85L32.20-27.85L32.20-27.85Q32.20-25.30 29.80-23.40L29.80-23.40L29.80-23.40Q27.60-21.70 25.80-21.70L25.80-21.70L25.80-21.70Q24-21.70 23.25-21.95L23.25-21.95L23.25-21.95Q23.45-23.75 23.45-24.93L23.45-24.93L23.45-24.93Q23.45-26.10 23.40-26.95L23.40-26.95L23.40-26.95Q23.35-27.80 23.10-28.60L23.10-28.60L23.10-28.60Q22.60-30.45 21.08-30.45L21.08-30.45L21.08-30.45Q19.55-30.45 18.03-29.03L18.03-29.03L18.03-29.03Q16.50-27.60 15.20-25.20L15.20-25.20L15.20-25.20Q12.25-19.75 12.25-13.30L12.25-13.30L12.25-13.30Q12.25-10.20 14-8.43L14-8.43L14-8.43Q15.75-6.65 19.50-6.65L19.50-6.65L19.50-6.65Q22.30-6.65 24.95-8.50L24.95-8.50L24.95-8.50Q26.10-9.30 26.95-10.35ZM57.55-5.55L57.55-5.55L57.55-5.55Q57.55-3.35 59.80-2.70L59.80-2.70L59.80-2.70Q59.25-0.85 57.10 0.15L57.10 0.15L57.10 0.15Q55.30 1 53.33 1L53.33 1L53.33 1Q51.35 1 50.33 0.48L50.33 0.48L50.33 0.48Q49.30-0.05 48.75-0.90L48.75-0.90L48.75-0.90Q47.85-2.20 47.85-4.65L47.85-4.65L47.85-4.65Q47.85-6.10 48.65-10.10L48.65-10.10L49.35-13.90L49.35-13.90Q50.20-18.25 50.20-19.85L50.20-19.85L50.20-19.85Q50.20-22.65 48.65-22.65L48.65-22.65L48.65-22.65Q46.70-22.65 45.45-19.80L45.45-19.80L45.45-19.80Q44.95-18.70 44.60-17.05L44.60-17.05L41.20 0L31.15 1L38.20-35L48.25-36L47.85-34L47.85-34Q46.45-26.30 45.25-23.70L45.25-23.70L45.25-23.70Q48.05-26.50 53.20-26.50L53.20-26.50L53.20-26.50Q58.65-26.50 59.65-22.90L59.65-22.90L59.65-22.90Q60-21.75 60-20.75L60-20.75L60-20.75Q60-19.75 59.92-18.98L59.92-18.98L59.92-18.98Q59.85-18.20 59.60-16.80L59.60-16.80L58.95-13.20L57.80-7.55L57.80-7.55Q57.55-6.40 57.55-5.55ZM74.75 1L74.75 1L74.75 1Q63.75 1 63.75-9.35L63.75-9.35L63.75-9.35Q63.75-16.70 67.80-21.45L67.80-21.45L67.80-21.45Q72.10-26.50 79.55-26.50L79.55-26.50L79.55-26.50Q84.95-26.50 87.70-24L87.70-24L87.70-24Q90.45-21.50 90.45-16.25L90.45-16.25L90.45-16.25Q90.45-8.25 86.15-3.60L86.15-3.60L86.15-3.60Q81.95 1 74.75 1ZM76.05-20.75L76.05-20.75L76.05-20.75Q75.45-19.40 74.97-17.38L74.97-17.38L74.97-17.38Q74.50-15.35 73.90-12.15L73.90-12.15L73.90-12.15Q73.30-8.95 73.30-5L73.30-5L73.30-5Q73.30-3.70 73.72-2.85L73.72-2.85L73.72-2.85Q74.15-2 75.30-2L75.30-2L75.30-2Q76.45-2 77.17-2.55L77.17-2.55L77.17-2.55Q77.90-3.10 78.45-4.40L78.45-4.40L78.45-4.40Q79.45-6.70 80.25-10.98L80.25-10.98L80.25-10.98Q81.05-15.25 81.13-17.10L81.13-17.10L81.13-17.10Q81.20-18.95 81.20-20.33L81.20-20.33L81.20-20.33Q81.20-21.70 80.80-22.60L80.80-22.60L80.80-22.60Q80.40-23.50 79.28-23.50L79.28-23.50L79.28-23.50Q78.15-23.50 77.40-22.80L77.40-22.80L77.40-22.80Q76.65-22.10 76.05-20.75ZM104.30 1L104.30 1L104.30 1Q93.30 1 93.30-9.35L93.30-9.35L93.30-9.35Q93.30-16.70 97.35-21.45L97.35-21.45L97.35-21.45Q101.65-26.50 109.10-26.50L109.10-26.50L109.10-26.50Q114.50-26.50 117.25-24L117.25-24L117.25-24Q120-21.50 120-16.25L120-16.25L120-16.25Q120-8.25 115.70-3.60L115.70-3.60L115.70-3.60Q111.50 1 104.30 1ZM105.60-20.75L105.60-20.75L105.60-20.75Q105-19.40 104.53-17.38L104.53-17.38L104.53-17.38Q104.05-15.35 103.45-12.15L103.45-12.15L103.45-12.15Q102.85-8.95 102.85-5L102.85-5L102.85-5Q102.85-3.70 103.28-2.85L103.28-2.85L103.28-2.85Q103.70-2 104.85-2L104.85-2L104.85-2Q106-2 106.72-2.55L106.72-2.55L106.72-2.55Q107.45-3.10 108-4.40L108-4.40L108-4.40Q109-6.70 109.80-10.98L109.80-10.98L109.80-10.98Q110.60-15.25 110.67-17.10L110.67-17.10L110.67-17.10Q110.75-18.95 110.75-20.33L110.75-20.33L110.75-20.33Q110.75-21.70 110.35-22.60L110.35-22.60L110.35-22.60Q109.95-23.50 108.83-23.50L108.83-23.50L108.83-23.50Q107.70-23.50 106.95-22.80L106.95-22.80L106.95-22.80Q106.20-22.10 105.60-20.75ZM137.90-17.55L137.90-17.55L137.90-17.55Q138.60-19.40 138.60-21L138.60-21L138.60-21Q138.60-23.95 136.20-23.95L136.20-23.95L136.20-23.95Q134.95-23.95 133.92-22.83L133.92-22.83L133.92-22.83Q132.90-21.70 132.90-20.30L132.90-20.30L132.90-20.30Q132.90-19.30 133.70-18.50L133.70-18.50L133.70-18.50Q134.85-17.40 137.80-15.60L137.80-15.60L137.80-15.60Q140.75-13.80 141.88-12.33L141.88-12.33L141.88-12.33Q143-10.85 143-8.83L143-8.83L143-8.83Q143-6.80 142.03-4.95L142.03-4.95L142.03-4.95Q141.05-3.10 139.30-1.80L139.30-1.80L139.30-1.80Q135.55 1 129.55 1L129.55 1L129.55 1Q126.30 1 123.80-0.70L123.80-0.70L123.80-0.70Q121.30-2.35 121.30-4.30L121.30-4.30L121.30-4.30Q121.30-6.25 122.72-7.40L122.72-7.40L122.72-7.40Q124.15-8.55 126.25-8.55L126.25-8.55L126.25-8.55Q128.35-8.55 129.65-7.75L129.65-7.75L129.65-7.75Q129-6.10 129-5L129-5L129-5Q129-1.70 131.80-1.70L131.80-1.70L131.80-1.70Q133-1.70 133.80-2.45L133.80-2.45L133.80-2.45Q134.60-3.20 134.60-4.50L134.60-4.50L134.60-4.50Q134.60-7.05 130.30-9.75L130.30-9.75L130.30-9.75Q126.80-12.05 126-12.95L126-12.95L126-12.95Q124.65-14.55 124.65-16.55L124.65-16.55L124.65-16.55Q124.65-18.55 125.60-20.45L125.60-20.45L125.60-20.45Q126.55-22.35 128.30-23.70L128.30-23.70L128.30-23.70Q131.95-26.50 138.30-26.50L138.30-26.50L138.30-26.50Q141.55-26.50 143.47-25.20L143.47-25.20L143.47-25.20Q145.40-23.90 145.40-21.70L145.40-21.70L145.40-21.70Q145.40-19.50 144.07-18.25L144.07-18.25L144.07-18.25Q142.75-17 140.35-17L140.35-17L140.35-17Q138.70-17 137.90-17.55ZM167.50-8.45L167.50-8.45L167.50-8.45Q168.75-7.60 168.75-5.73L168.75-5.73L168.75-5.73Q168.75-3.85 167.80-2.65L167.80-2.65L167.80-2.65Q166.85-1.45 165.30-0.65L165.30-0.65L165.30-0.65Q162.10 1 158.65 1L158.65 1L158.65 1Q155.20 1 153.18 0.25L153.18 0.25L153.18 0.25Q151.15-0.50 149.80-1.90L149.80-1.90L149.80-1.90Q147.15-4.55 147.15-9.40L147.15-9.40L147.15-9.40Q147.15-16.95 151.25-21.55L151.25-21.55L151.25-21.55Q155.65-26.50 163.30-26.50L163.30-26.50L163.30-26.50Q168.05-26.50 170.40-24.50L170.40-24.50L170.40-24.50Q172.15-23 172.15-20.55L172.15-20.55L172.15-20.55Q172.15-11.75 156.95-11.75L156.95-11.75L156.95-11.75Q156.75-10.45 156.75-9.35L156.75-9.35L156.75-9.35Q156.75-7.05 157.78-6.18L157.78-6.18L157.78-6.18Q158.80-5.30 160.70-5.30L160.70-5.30L160.70-5.30Q162.60-5.30 164.63-6.18L164.63-6.18L164.63-6.18Q166.65-7.05 167.50-8.45ZM157.30-13.90L157.30-13.90L157.30-13.90Q160.85-13.90 162.90-16.10L162.90-16.10L162.90-16.10Q164.95-18.20 164.95-21.55L164.95-21.55L164.95-21.55Q164.95-22.70 164.53-23.33L164.53-23.33L164.53-23.33Q164.10-23.95 163.25-23.95L163.25-23.95L163.25-23.95Q162.40-23.95 161.68-23.63L161.68-23.63L161.68-23.63Q160.95-23.30 160.20-22.20L160.20-22.20L160.20-22.20Q158.35-19.70 157.30-13.90ZM200.05-5.65L200.05-5.65L200.05-5.65Q197.45-2.95 192.70-2.95L192.70-2.95L192.70-2.95Q186.75-2.95 185.50-7.30L185.50-7.30L185.50-7.30Q185.10-8.60 185.10-10.05L185.10-10.05L185.10-10.05Q185.10-11.50 185.40-13L185.40-13L187.75-25.50L197.90-26.50L195.15-11.95L195.15-11.95Q195.05-11.30 194.90-10.60L194.90-10.60L194.90-10.60Q194.75-9.90 194.75-9.18L194.75-9.18L194.75-9.18Q194.75-8.45 195-7.98L195-7.98L195-7.98Q195.25-7.50 195.60-7.20L195.60-7.20L195.60-7.20Q196.20-6.80 197.28-6.80L197.28-6.80L197.28-6.80Q198.35-6.80 199.28-8.10L199.28-8.10L199.28-8.10Q200.20-9.40 200.65-11.65L200.65-11.65L203.40-25.50L213.25-26.50L209.50-6.85L209.50-6.85Q207.65 2.75 203.85 6.55L203.85 6.55L203.85 6.55Q201.90 8.50 199.38 9.28L199.38 9.28L199.38 9.28Q196.85 10.05 193.60 10.05L193.60 10.05L193.60 10.05Q188.35 10.05 185.35 8.40L185.35 8.40L185.35 8.40Q182.35 6.75 182.35 4L182.35 4L182.35 4Q182.35 1.95 183.90 0.78L183.90 0.78L183.90 0.78Q185.45-0.40 187.85-0.40L187.85-0.40L187.85-0.40Q189.95-0.40 191.55 0.50L191.55 0.50L191.55 0.50Q192.50 1.05 192.95 1.75L192.95 1.75L192.95 1.75Q191.80 2.75 191.80 4.40L191.80 4.40L191.80 4.40Q191.80 6.60 193.80 6.60L193.80 6.60L193.80 6.60Q197.10 6.60 199-1L199-1L199-1Q199.55-3.25 200.05-5.65ZM225.95 1L225.95 1L225.95 1Q214.95 1 214.95-9.35L214.95-9.35L214.95-9.35Q214.95-16.70 219.00-21.45L219.00-21.45L219.00-21.45Q223.30-26.50 230.75-26.50L230.75-26.50L230.75-26.50Q236.15-26.50 238.90-24L238.90-24L238.90-24Q241.65-21.50 241.65-16.25L241.65-16.25L241.65-16.25Q241.65-8.25 237.35-3.60L237.35-3.60L237.35-3.60Q233.15 1 225.95 1ZM227.25-20.75L227.25-20.75L227.25-20.75Q226.65-19.40 226.18-17.38L226.18-17.38L226.18-17.38Q225.70-15.35 225.10-12.15L225.10-12.15L225.10-12.15Q224.50-8.95 224.50-5L224.50-5L224.50-5Q224.50-3.70 224.93-2.85L224.93-2.85L224.93-2.85Q225.35-2 226.50-2L226.50-2L226.50-2Q227.65-2 228.38-2.55L228.38-2.55L228.38-2.55Q229.10-3.10 229.65-4.40L229.65-4.40L229.65-4.40Q230.65-6.70 231.45-10.98L231.45-10.98L231.45-10.98Q232.25-15.25 232.33-17.10L232.33-17.10L232.33-17.10Q232.40-18.95 232.40-20.33L232.40-20.33L232.40-20.33Q232.40-21.70 232.00-22.60L232.00-22.60L232.00-22.60Q231.60-23.50 230.48-23.50L230.48-23.50L230.48-23.50Q229.35-23.50 228.60-22.80L228.60-22.80L228.60-22.80Q227.85-22.10 227.25-20.75ZM260.65-2.10L260.65-2.10L260.65-2.10Q258.25 1 252.30 1L252.30 1L252.30 1Q249.20 1 246.95-0.88L246.95-0.88L246.95-0.88Q244.70-2.75 244.70-5.45L244.70-5.45L244.70-5.45Q244.70-6.95 244.85-7.70L244.85-7.70L248.20-25.50L258.35-26.50L254.70-7.20L254.70-7.20Q254.50-6.10 254.50-5.45L254.50-5.45L254.50-5.45Q254.50-2.55 256.25-2.55L256.25-2.55L256.25-2.55Q258.20-2.55 259.60-5.20L259.60-5.20L259.60-5.20Q260.05-6.05 260.25-7.15L260.25-7.15L263.80-25.50L273.65-26.50L269.95-7L269.95-7Q269.80-6.25 269.80-5.45L269.80-5.45L269.80-5.45Q269.80-4.65 270.25-3.78L270.25-3.78L270.25-3.78Q270.70-2.90 272.15-2.70L272.15-2.70L272.15-2.70Q271.85-1.50 270.80-0.70L270.80-0.70L270.80-0.70Q268.60 1 266.23 1L266.23 1L266.23 1Q263.85 1 262.45 0.15L262.45 0.15L262.45 0.15Q261.05-0.70 260.65-2.10ZM292-14.05L292-14.05L292-14.05Q293.80-17.25 293.80-20.50L293.80-20.50L293.80-20.50Q293.80-22.65 292.25-22.65L292.25-22.65L292.25-22.65Q291.05-22.65 289.80-20.60L289.80-20.60L289.80-20.60Q288.50-18.55 288.10-15.90L288.10-15.90L285.50 0L275.15 1L280.25-25.50L288.50-26.50L287.60-21.45L287.60-21.45Q290.05-26.50 295.55-26.50L295.55-26.50L295.55-26.50Q298.45-26.50 300.02-25L300.02-25L300.02-25Q301.60-23.50 301.60-20.43L301.60-20.43L301.60-20.43Q301.60-17.35 299.57-15.40L299.57-15.40L299.57-15.40Q297.55-13.45 294.10-13.45L294.10-13.45L294.10-13.45Q292.60-13.45 292-14.05ZM317.85 0L312.35 0L318.35-33L329.10-33L336.90-10.30L341.05-33L346.60-32.95L340.50 0L329.05 0L321.85-21.85L317.85 0ZM358.75 1L358.75 1L358.75 1Q347.75 1 347.75-9.35L347.75-9.35L347.75-9.35Q347.75-16.70 351.80-21.45L351.80-21.45L351.80-21.45Q356.10-26.50 363.55-26.50L363.55-26.50L363.55-26.50Q368.95-26.50 371.70-24L371.70-24L371.70-24Q374.45-21.50 374.45-16.25L374.45-16.25L374.45-16.25Q374.45-8.25 370.15-3.60L370.15-3.60L370.15-3.60Q365.95 1 358.75 1ZM360.05-20.75L360.05-20.75L360.05-20.75Q359.45-19.40 358.98-17.38L358.98-17.38L358.98-17.38Q358.50-15.35 357.90-12.15L357.90-12.15L357.90-12.15Q357.30-8.95 357.30-5L357.30-5L357.30-5Q357.30-3.70 357.73-2.85L357.73-2.85L357.73-2.85Q358.15-2 359.30-2L359.30-2L359.30-2Q360.45-2 361.18-2.55L361.18-2.55L361.18-2.55Q361.90-3.10 362.45-4.40L362.45-4.40L362.45-4.40Q363.45-6.70 364.25-10.98L364.25-10.98L364.25-10.98Q365.05-15.25 365.13-17.10L365.13-17.10L365.13-17.10Q365.20-18.95 365.20-20.33L365.20-20.33L365.20-20.33Q365.20-21.70 364.80-22.60L364.80-22.60L364.80-22.60Q364.40-23.50 363.27-23.50L363.27-23.50L363.27-23.50Q362.15-23.50 361.40-22.80L361.40-22.80L361.40-22.80Q360.65-22.10 360.05-20.75ZM378.20-5L378.20-5L378.20-5Q378.20-6.35 378.90-9.75L378.90-9.75L381.55-23.25L378.60-23.25L378.80-24.75L378.80-24.75Q384.80-26.55 390.60-30.95L390.60-30.95L393-30.95L391.80-25.50L395.70-25.50L395.25-23.25L391.40-23.25L388.85-9.75L388.85-9.75Q388.20-6.65 388.20-5.60L388.20-5.60L388.20-5.60Q388.20-3.20 390.30-2.70L390.30-2.70L390.30-2.70Q389.80-1 388 0L388 0L388 0Q386.20 1 383.65 1L383.65 1L383.65 1Q381.10 1 379.65-0.60L379.65-0.60L379.65-0.60Q378.20-2.20 378.20-5ZM415.50-8.45L415.50-8.45L415.50-8.45Q416.75-7.60 416.75-5.73L416.75-5.73L416.75-5.73Q416.75-3.85 415.80-2.65L415.80-2.65L415.80-2.65Q414.85-1.45 413.30-0.65L413.30-0.65L413.30-0.65Q410.10 1 406.65 1L406.65 1L406.65 1Q403.20 1 401.18 0.25L401.18 0.25L401.18 0.25Q399.15-0.50 397.80-1.90L397.80-1.90L397.80-1.90Q395.15-4.55 395.15-9.40L395.15-9.40L395.15-9.40Q395.15-16.95 399.25-21.55L399.25-21.55L399.25-21.55Q403.65-26.50 411.30-26.50L411.30-26.50L411.30-26.50Q416.05-26.50 418.40-24.50L418.40-24.50L418.40-24.50Q420.15-23 420.15-20.55L420.15-20.55L420.15-20.55Q420.15-11.75 404.95-11.75L404.95-11.75L404.95-11.75Q404.75-10.45 404.75-9.35L404.75-9.35L404.75-9.35Q404.75-7.05 405.78-6.18L405.78-6.18L405.78-6.18Q406.80-5.30 408.70-5.30L408.70-5.30L408.70-5.30Q410.60-5.30 412.63-6.18L412.63-6.18L412.63-6.18Q414.65-7.05 415.50-8.45ZM405.30-13.90L405.30-13.90L405.30-13.90Q408.85-13.90 410.90-16.10L410.90-16.10L410.90-16.10Q412.95-18.20 412.95-21.55L412.95-21.55L412.95-21.55Q412.95-22.70 412.53-23.33L412.53-23.33L412.53-23.33Q412.10-23.95 411.25-23.95L411.25-23.95L411.25-23.95Q410.40-23.95 409.68-23.63L409.68-23.63L409.68-23.63Q408.95-23.30 408.20-22.20L408.20-22.20L408.20-22.20Q406.35-19.70 405.30-13.90Z"
        fill="#ffffff"></path>
    </g>
  </g>
  <style>
    text {
      font-size: 64px;
      font-family: Arial Black;
      dominant-baseline: central;
      text-anchor: middle;
    }
  </style>
</svg>